<svg width="38" height="38" viewBox="0 0 38 38" fill="none" xmlns="http://www.w3.org/2000/svg">
<path d="M19.0002 9.12637C13.2056 6.65805 9.88736 6.49447 4.95801 8.51694C4.10026 8.86887 3.5625 9.72033 3.5625 10.6475V25.2177C3.5625 26.937 5.33244 28.0689 6.97575 27.5635C11.1112 26.2916 14.2268 26.7363 19.0002 28.8746C24.2822 31.3068 27.5613 31.5433 32.9811 29.465C33.87 29.1242 34.4379 28.2559 34.4379 27.304V12.792C34.4379 11.0703 32.6635 9.93888 31.018 10.4453C26.9374 11.7012 23.8149 11.2694 19.0002 9.12637Z" fill="#043B56" stroke="#043B56" stroke-width="2.37503"/>
<circle cx="19.0001" cy="19.0002" r="4.75006" fill="#B3E4FB"/>
<path d="M8.3125 11.8767C10.0098 11.1045 11.0332 10.9886 13.0626 11.8767" stroke="#B3E4FB" stroke-width="2.37503" stroke-linecap="round"/>
<path d="M24.9375 25.5022C26.6348 26.2744 27.6582 26.3903 29.6876 25.5022" stroke="#B3E4FB" stroke-width="2.37503" stroke-linecap="round"/>
</svg>
