<svg width="24" height="24" viewBox="0 0 24 24" fill="none" xmlns="http://www.w3.org/2000/svg">
<g clip-path="url(#clip0_6445_3953)">
<circle cx="12" cy="12" r="6" fill="#043B56"/>
<mask id="path-2-outside-1_6445_3953" maskUnits="userSpaceOnUse" x="-2.82843" y="-2.48479" width="17.6777" height="17.6777" fill="black">
<rect fill="white" x="-2.82843" y="-2.48479" width="17.6777" height="17.6777"/>
<path fill-rule="evenodd" clip-rule="evenodd" d="M3.55799 2.85754C3.30179 2.85733 3.04553 2.95496 2.85006 3.15043C2.6533 3.34719 2.55567 3.60554 2.55718 3.86342L2.55728 8.14358C2.55729 8.69586 3.00502 9.14357 3.5573 9.14356C4.10959 9.14354 4.55729 8.69582 4.55728 8.14353L4.55724 6.27182L7.99339 9.70798C8.38391 10.0985 9.01708 10.0985 9.4076 9.70798C9.79813 9.31745 9.79813 8.68429 9.4076 8.29376L5.97144 4.8576L7.84327 4.85764C8.39556 4.85766 8.84328 4.40995 8.8433 3.85767C8.84331 3.30538 8.39561 2.85766 7.84332 2.85764L3.55799 2.85754Z"/>
</mask>
<path fill-rule="evenodd" clip-rule="evenodd" d="M3.55799 2.85754C3.30179 2.85733 3.04553 2.95496 2.85006 3.15043C2.6533 3.34719 2.55567 3.60554 2.55718 3.86342L2.55728 8.14358C2.55729 8.69586 3.00502 9.14357 3.5573 9.14356C4.10959 9.14354 4.55729 8.69582 4.55728 8.14353L4.55724 6.27182L7.99339 9.70798C8.38391 10.0985 9.01708 10.0985 9.4076 9.70798C9.79813 9.31745 9.79813 8.68429 9.4076 8.29376L5.97144 4.8576L7.84327 4.85764C8.39556 4.85766 8.84328 4.40995 8.8433 3.85767C8.84331 3.30538 8.39561 2.85766 7.84332 2.85764L3.55799 2.85754Z" fill="#B3E4FB"/>
<path d="M3.55799 2.85754L3.55676 4.35754L3.55795 4.35754L3.55799 2.85754ZM2.55718 3.86342L4.05721 3.86338L4.05716 3.85465L2.55718 3.86342ZM2.55728 8.14358L4.05728 8.14354L4.05728 8.14354L2.55728 8.14358ZM3.5573 9.14356L3.55734 10.6436L3.55734 10.6436L3.5573 9.14356ZM4.55728 8.14353L3.05728 8.14357L3.05728 8.14357L4.55728 8.14353ZM4.55724 6.27182L5.6179 5.21116L3.05715 2.65042L3.05724 6.27186L4.55724 6.27182ZM7.99339 9.70798L6.93273 10.7686L7.99339 9.70798ZM9.4076 8.29376L8.34694 9.35442L9.4076 8.29376ZM5.97144 4.8576L5.97147 3.3576L2.35003 3.35751L4.91078 5.91826L5.97144 4.8576ZM7.84327 4.85764L7.84331 3.35764L7.84327 4.85764ZM8.8433 3.85767L10.3433 3.8577L10.3433 3.8577L8.8433 3.85767ZM7.84332 2.85764L7.84328 4.35764L7.84328 4.35764L7.84332 2.85764ZM3.91072 4.21109C3.81327 4.30854 3.68252 4.35764 3.55676 4.35754L3.55921 1.35754C2.92106 1.35702 2.27779 1.60138 1.7894 2.08977L3.91072 4.21109ZM4.05716 3.85465C4.05789 3.98117 4.00884 4.11296 3.91072 4.21109L1.7894 2.08977C1.29775 2.58141 1.05345 3.22991 1.05721 3.87218L4.05716 3.85465ZM4.05728 8.14354L4.05718 3.86338L1.05718 3.86345L1.05728 8.14361L4.05728 8.14354ZM3.55727 7.64356C3.83341 7.64355 4.05727 7.8674 4.05728 8.14354L1.05728 8.14361C1.05731 9.52432 2.17663 10.6436 3.55734 10.6436L3.55727 7.64356ZM3.05728 8.14357C3.05727 7.86742 3.28113 7.64356 3.55727 7.64356L3.55734 10.6436C4.93805 10.6435 6.05731 9.52421 6.05728 8.1435L3.05728 8.14357ZM3.05724 6.27186L3.05728 8.14357L6.05728 8.1435L6.05724 6.27179L3.05724 6.27186ZM9.05405 8.64732L5.6179 5.21116L3.49658 7.33248L6.93273 10.7686L9.05405 8.64732ZM8.34694 8.64732C8.5422 8.45206 8.85879 8.45205 9.05405 8.64732L6.93273 10.7686C7.90904 11.7449 9.49195 11.7449 10.4683 10.7686L8.34694 8.64732ZM8.34694 9.35442C8.15168 9.15916 8.15168 8.84258 8.34694 8.64732L10.4683 10.7686C11.4446 9.79233 11.4446 8.20941 10.4683 7.2331L8.34694 9.35442ZM4.91078 5.91826L8.34694 9.35442L10.4683 7.2331L7.0321 3.79694L4.91078 5.91826ZM7.84331 3.35764L5.97147 3.3576L5.9714 6.3576L7.84324 6.35764L7.84331 3.35764ZM7.3433 3.85763C7.3433 3.58149 7.56717 3.35764 7.84331 3.35764L7.84324 6.35764C9.22395 6.35768 10.3433 5.23842 10.3433 3.8577L7.3433 3.85763ZM7.84328 4.35764C7.56714 4.35764 7.34329 4.13377 7.3433 3.85763L10.3433 3.8577C10.3433 2.47699 9.22407 1.35768 7.84336 1.35764L7.84328 4.35764ZM3.55795 4.35754L7.84328 4.35764L7.84336 1.35764L3.55802 1.35754L3.55795 4.35754Z" fill="white" mask="url(#path-2-outside-1_6445_3953)"/>
<mask id="path-4-outside-2_6445_3953" maskUnits="userSpaceOnUse" x="9.15076" y="8.66552" width="17.6777" height="17.6777" fill="black">
<rect fill="white" x="9.15076" y="8.66552" width="17.6777" height="17.6777"/>
<path fill-rule="evenodd" clip-rule="evenodd" d="M20.442 21.0009C20.6982 21.0011 20.9545 20.9034 21.1499 20.708C21.3467 20.5112 21.4443 20.2529 21.4428 19.995L21.4427 15.7148C21.4427 15.1625 20.995 14.7148 20.4427 14.7148C19.8904 14.7149 19.4427 15.1626 19.4427 15.7149L19.4428 17.5866L16.0066 14.1504C15.6161 13.7599 14.9829 13.7599 14.5924 14.1504C14.2019 14.5409 14.2019 15.1741 14.5924 15.5646L18.0286 19.0008L16.1567 19.0008C15.6044 19.0007 15.1567 19.4484 15.1567 20.0007C15.1567 20.553 15.6044 21.0007 16.1567 21.0008L20.442 21.0009Z"/>
</mask>
<path fill-rule="evenodd" clip-rule="evenodd" d="M20.442 21.0009C20.6982 21.0011 20.9545 20.9034 21.1499 20.708C21.3467 20.5112 21.4443 20.2529 21.4428 19.995L21.4427 15.7148C21.4427 15.1625 20.995 14.7148 20.4427 14.7148C19.8904 14.7149 19.4427 15.1626 19.4427 15.7149L19.4428 17.5866L16.0066 14.1504C15.6161 13.7599 14.9829 13.7599 14.5924 14.1504C14.2019 14.5409 14.2019 15.1741 14.5924 15.5646L18.0286 19.0008L16.1567 19.0008C15.6044 19.0007 15.1567 19.4484 15.1567 20.0007C15.1567 20.553 15.6044 21.0007 16.1567 21.0008L20.442 21.0009Z" fill="#B3E4FB"/>
<path d="M20.442 21.0009L20.4432 19.5009L20.4421 19.5009L20.442 21.0009ZM21.4428 19.995L19.9428 19.995L19.9428 20.0037L21.4428 19.995ZM21.4427 15.7148L19.9427 15.7149L19.9427 15.7149L21.4427 15.7148ZM20.4427 14.7148L20.4427 13.2148L20.4427 13.2148L20.4427 14.7148ZM19.4427 15.7149L20.9427 15.7148L20.9427 15.7148L19.4427 15.7149ZM19.4428 17.5866L18.3821 18.6472L20.9428 21.208L20.9428 17.5865L19.4428 17.5866ZM16.0066 14.1504L17.0673 13.0898L16.0066 14.1504ZM14.5924 15.5646L15.6531 14.504L14.5924 15.5646ZM18.0286 19.0008L18.0285 20.5008L21.65 20.5009L19.0892 17.9401L18.0286 19.0008ZM16.1567 19.0008L16.1567 20.5008L16.1567 19.0008ZM15.1567 20.0007L13.6567 20.0007L13.6567 20.0007L15.1567 20.0007ZM16.1567 21.0008L16.1567 19.5008L16.1567 19.5008L16.1567 21.0008ZM20.0893 19.6473C20.1867 19.5499 20.3175 19.5008 20.4432 19.5009L20.4408 22.5009C21.0789 22.5014 21.7222 22.257 22.2106 21.7686L20.0893 19.6473ZM19.9428 20.0037C19.9421 19.8772 19.9912 19.7454 20.0893 19.6473L22.2106 21.7686C22.7022 21.277 22.9465 20.6285 22.9428 19.9862L19.9428 20.0037ZM19.9427 15.7149L19.9428 19.995L22.9428 19.9949L22.9427 15.7148L19.9427 15.7149ZM20.4427 16.2148C20.1666 16.2148 19.9427 15.991 19.9427 15.7149L22.9427 15.7148C22.9427 14.3341 21.8234 13.2148 20.4427 13.2148L20.4427 16.2148ZM20.9427 15.7148C20.9427 15.991 20.7189 16.2148 20.4427 16.2148L20.4427 13.2148C19.0619 13.2149 17.9427 14.3342 17.9427 15.7149L20.9427 15.7148ZM20.9428 17.5865L20.9427 15.7148L17.9427 15.7149L17.9428 17.5866L20.9428 17.5865ZM14.946 15.2111L18.3821 18.6472L20.5034 16.5259L17.0673 13.0898L14.946 15.2111ZM15.6531 15.2111C15.4578 15.4063 15.1412 15.4063 14.946 15.2111L17.0673 13.0898C16.091 12.1134 14.508 12.1135 13.5317 13.0898L15.6531 15.2111ZM15.6531 14.504C15.8483 14.6992 15.8483 15.0158 15.6531 15.2111L13.5317 13.0898C12.5554 14.0661 12.5554 15.649 13.5317 16.6253L15.6531 14.504ZM19.0892 17.9401L15.6531 14.504L13.5317 16.6253L16.9679 20.0615L19.0892 17.9401ZM16.1567 20.5008L18.0285 20.5008L18.0286 17.5008L16.1568 17.5008L16.1567 20.5008ZM16.6567 20.0008C16.6567 20.2769 16.4328 20.5008 16.1567 20.5008L16.1568 17.5008C14.7761 17.5007 13.6567 18.62 13.6567 20.0007L16.6567 20.0008ZM16.1567 19.5008C16.4329 19.5008 16.6567 19.7246 16.6567 20.0008L13.6567 20.0007C13.6567 21.3814 14.7759 22.5007 16.1566 22.5008L16.1567 19.5008ZM20.4421 19.5009L16.1567 19.5008L16.1566 22.5008L20.442 22.5009L20.4421 19.5009Z" fill="white" mask="url(#path-4-outside-2_6445_3953)"/>
<mask id="path-6-outside-3_6445_3953" maskUnits="userSpaceOnUse" x="-2.82843" y="8.66552" width="17.6777" height="17.6777" fill="black">
<rect fill="white" x="-2.82843" y="8.66552" width="17.6777" height="17.6777"/>
<path fill-rule="evenodd" clip-rule="evenodd" d="M3.55799 21.0009C3.30179 21.0011 3.04553 20.9034 2.85006 20.708C2.6533 20.5112 2.55567 20.2529 2.55718 19.995L2.55728 15.7148C2.55729 15.1625 3.00502 14.7148 3.5573 14.7148C4.10959 14.7149 4.55729 15.1626 4.55728 15.7149L4.55724 17.5866L7.99339 14.1504C8.38391 13.7599 9.01708 13.7599 9.4076 14.1504C9.79813 14.5409 9.79813 15.1741 9.4076 15.5646L5.97144 19.0008L7.84327 19.0008C8.39556 19.0007 8.84328 19.4484 8.8433 20.0007C8.84331 20.553 8.39561 21.0007 7.84332 21.0008L3.55799 21.0009Z"/>
</mask>
<path fill-rule="evenodd" clip-rule="evenodd" d="M3.55799 21.0009C3.30179 21.0011 3.04553 20.9034 2.85006 20.708C2.6533 20.5112 2.55567 20.2529 2.55718 19.995L2.55728 15.7148C2.55729 15.1625 3.00502 14.7148 3.5573 14.7148C4.10959 14.7149 4.55729 15.1626 4.55728 15.7149L4.55724 17.5866L7.99339 14.1504C8.38391 13.7599 9.01708 13.7599 9.4076 14.1504C9.79813 14.5409 9.79813 15.1741 9.4076 15.5646L5.97144 19.0008L7.84327 19.0008C8.39556 19.0007 8.84328 19.4484 8.8433 20.0007C8.84331 20.553 8.39561 21.0007 7.84332 21.0008L3.55799 21.0009Z" fill="#B3E4FB"/>
<path d="M3.55799 21.0009L3.55676 19.5009L3.55795 19.5009L3.55799 21.0009ZM2.55718 19.995L4.05721 19.995L4.05716 20.0037L2.55718 19.995ZM2.55728 15.7148L4.05728 15.7149L4.05728 15.7149L2.55728 15.7148ZM3.5573 14.7148L3.55734 13.2148L3.55734 13.2148L3.5573 14.7148ZM4.55728 15.7149L3.05728 15.7148L3.05728 15.7148L4.55728 15.7149ZM4.55724 17.5866L5.6179 18.6472L3.05715 21.208L3.05724 17.5865L4.55724 17.5866ZM7.99339 14.1504L6.93273 13.0898L7.99339 14.1504ZM9.4076 15.5646L8.34694 14.504L9.4076 15.5646ZM5.97144 19.0008L5.97147 20.5008L2.35003 20.5009L4.91078 17.9401L5.97144 19.0008ZM7.84327 19.0008L7.84331 20.5008L7.84327 19.0008ZM8.8433 20.0007L10.3433 20.0007L10.3433 20.0007L8.8433 20.0007ZM7.84332 21.0008L7.84328 19.5008L7.84328 19.5008L7.84332 21.0008ZM3.91072 19.6473C3.81327 19.5499 3.68252 19.5008 3.55676 19.5009L3.55921 22.5009C2.92106 22.5014 2.27779 22.257 1.7894 21.7686L3.91072 19.6473ZM4.05716 20.0037C4.05789 19.8772 4.00884 19.7454 3.91072 19.6473L1.7894 21.7686C1.29775 21.277 1.05345 20.6285 1.05721 19.9862L4.05716 20.0037ZM4.05728 15.7149L4.05718 19.995L1.05718 19.9949L1.05728 15.7148L4.05728 15.7149ZM3.55727 16.2148C3.83341 16.2148 4.05727 15.991 4.05728 15.7149L1.05728 15.7148C1.05731 14.3341 2.17663 13.2148 3.55734 13.2148L3.55727 16.2148ZM3.05728 15.7148C3.05727 15.991 3.28113 16.2148 3.55727 16.2148L3.55734 13.2148C4.93805 13.2149 6.05731 14.3342 6.05728 15.7149L3.05728 15.7148ZM3.05724 17.5865L3.05728 15.7148L6.05728 15.7149L6.05724 17.5866L3.05724 17.5865ZM9.05405 15.2111L5.6179 18.6472L3.49658 16.5259L6.93273 13.0898L9.05405 15.2111ZM8.34694 15.2111C8.5422 15.4063 8.85879 15.4063 9.05405 15.2111L6.93273 13.0898C7.90904 12.1134 9.49195 12.1135 10.4683 13.0898L8.34694 15.2111ZM8.34694 14.504C8.15168 14.6992 8.15168 15.0158 8.34694 15.2111L10.4683 13.0898C11.4446 14.0661 11.4446 15.649 10.4683 16.6253L8.34694 14.504ZM4.91078 17.9401L8.34694 14.504L10.4683 16.6253L7.0321 20.0615L4.91078 17.9401ZM7.84331 20.5008L5.97147 20.5008L5.9714 17.5008L7.84324 17.5008L7.84331 20.5008ZM7.3433 20.0008C7.3433 20.2769 7.56717 20.5008 7.84331 20.5008L7.84324 17.5008C9.22395 17.5007 10.3433 18.62 10.3433 20.0007L7.3433 20.0008ZM7.84328 19.5008C7.56714 19.5008 7.34329 19.7246 7.3433 20.0008L10.3433 20.0007C10.3433 21.3814 9.22407 22.5007 7.84336 22.5008L7.84328 19.5008ZM3.55795 19.5009L7.84328 19.5008L7.84336 22.5008L3.55802 22.5009L3.55795 19.5009Z" fill="white" mask="url(#path-6-outside-3_6445_3953)"/>
<mask id="path-8-outside-4_6445_3953" maskUnits="userSpaceOnUse" x="9.15076" y="-2.48528" width="17.6777" height="17.6777" fill="black">
<rect fill="white" x="9.15076" y="-2.48528" width="17.6777" height="17.6777"/>
<path fill-rule="evenodd" clip-rule="evenodd" d="M20.442 2.85705C20.6982 2.85684 20.9545 2.95447 21.1499 3.14994C21.3467 3.3467 21.4443 3.60505 21.4428 3.86293L21.4427 8.14309C21.4427 8.69537 20.995 9.14308 20.4427 9.14307C19.8904 9.14305 19.4427 8.69533 19.4427 8.14304L19.4428 6.27134L16.0066 9.70749C15.6161 10.098 14.9829 10.098 14.5924 9.70749C14.2019 9.31696 14.2019 8.6838 14.5924 8.29328L18.0286 4.85711L16.1567 4.85715C15.6044 4.85717 15.1567 4.40946 15.1567 3.85718C15.1567 3.30489 15.6044 2.85717 16.1567 2.85715L20.442 2.85705Z"/>
</mask>
<path fill-rule="evenodd" clip-rule="evenodd" d="M20.442 2.85705C20.6982 2.85684 20.9545 2.95447 21.1499 3.14994C21.3467 3.3467 21.4443 3.60505 21.4428 3.86293L21.4427 8.14309C21.4427 8.69537 20.995 9.14308 20.4427 9.14307C19.8904 9.14305 19.4427 8.69533 19.4427 8.14304L19.4428 6.27134L16.0066 9.70749C15.6161 10.098 14.9829 10.098 14.5924 9.70749C14.2019 9.31696 14.2019 8.6838 14.5924 8.29328L18.0286 4.85711L16.1567 4.85715C15.6044 4.85717 15.1567 4.40946 15.1567 3.85718C15.1567 3.30489 15.6044 2.85717 16.1567 2.85715L20.442 2.85705Z" fill="#B3E4FB"/>
<path d="M20.442 2.85705L20.4432 4.35705L20.4421 4.35705L20.442 2.85705ZM21.4428 3.86293L19.9428 3.8629L19.9428 3.85416L21.4428 3.86293ZM21.4427 8.14309L19.9427 8.14306L19.9427 8.14306L21.4427 8.14309ZM20.4427 9.14307L20.4427 10.6431L20.4427 10.6431L20.4427 9.14307ZM19.4427 8.14304L20.9427 8.14308L20.9427 8.14308L19.4427 8.14304ZM19.4428 6.27134L18.3821 5.21068L20.9428 2.64993L20.9428 6.27137L19.4428 6.27134ZM16.0066 9.70749L17.0673 10.7681L16.0066 9.70749ZM14.5924 8.29328L15.6531 9.35394L14.5924 8.29328ZM18.0286 4.85711L18.0285 3.35711L21.65 3.35702L19.0892 5.91777L18.0286 4.85711ZM16.1567 4.85715L16.1567 3.35715L16.1567 4.85715ZM15.1567 3.85718L13.6567 3.85722L13.6567 3.85722L15.1567 3.85718ZM16.1567 2.85715L16.1567 4.35715L16.1567 4.35715L16.1567 2.85715ZM20.0893 4.2106C20.1867 4.30805 20.3175 4.35715 20.4432 4.35705L20.4408 1.35705C21.0789 1.35653 21.7222 1.60089 22.2106 2.08928L20.0893 4.2106ZM19.9428 3.85416C19.9421 3.98068 19.9912 4.11248 20.0893 4.2106L22.2106 2.08928C22.7022 2.58093 22.9465 3.22942 22.9428 3.8717L19.9428 3.85416ZM19.9427 8.14306L19.9428 3.8629L22.9428 3.86297L22.9427 8.14312L19.9427 8.14306ZM20.4427 7.64307C20.1666 7.64306 19.9427 7.86691 19.9427 8.14306L22.9427 8.14312C22.9427 9.52384 21.8234 10.6431 20.4427 10.6431L20.4427 7.64307ZM20.9427 8.14308C20.9427 7.86694 20.7189 7.64307 20.4427 7.64307L20.4427 10.6431C19.0619 10.643 17.9427 9.52372 17.9427 8.14301L20.9427 8.14308ZM20.9428 6.27137L20.9427 8.14308L17.9427 8.14301L17.9428 6.2713L20.9428 6.27137ZM14.946 8.64683L18.3821 5.21068L20.5034 7.332L17.0673 10.7681L14.946 8.64683ZM15.6531 8.64683C15.4578 8.45157 15.1412 8.45157 14.946 8.64683L17.0673 10.7681C16.091 11.7445 14.508 11.7445 13.5317 10.7681L15.6531 8.64683ZM15.6531 9.35394C15.8483 9.15867 15.8483 8.84209 15.6531 8.64683L13.5317 10.7681C12.5554 9.79184 12.5554 8.20893 13.5317 7.23262L15.6531 9.35394ZM19.0892 5.91777L15.6531 9.35394L13.5317 7.23262L16.9679 3.79645L19.0892 5.91777ZM16.1567 3.35715L18.0285 3.35711L18.0286 6.35711L16.1568 6.35715L16.1567 3.35715ZM16.6567 3.85714C16.6567 3.581 16.4328 3.35715 16.1567 3.35715L16.1568 6.35715C14.7761 6.35719 13.6567 5.23793 13.6567 3.85722L16.6567 3.85714ZM16.1567 4.35715C16.4329 4.35715 16.6567 4.13328 16.6567 3.85714L13.6567 3.85722C13.6567 2.47651 14.7759 1.35719 16.1566 1.35716L16.1567 4.35715ZM20.4421 4.35705L16.1567 4.35715L16.1566 1.35715L20.442 1.35705L20.4421 4.35705Z" fill="white" mask="url(#path-8-outside-4_6445_3953)"/>
</g>
<defs>
<clipPath id="clip0_6445_3953">
<rect width="24" height="24" fill="white"/>
</clipPath>
</defs>
</svg>
