<svg width="24" height="24" viewBox="0 0 24 24" fill="none" xmlns="http://www.w3.org/2000/svg">
<path fill-rule="evenodd" clip-rule="evenodd" d="M5.67578 2.67578C4.57121 2.67578 3.67578 3.57121 3.67578 4.67578V18.6758C3.67578 19.7804 4.57121 20.6758 5.67578 20.6758H17.7306C18.8135 20.6758 19.6998 19.8139 19.7299 18.7314L19.9945 9.21524C19.9983 9.07784 19.9454 8.94494 19.8482 8.84776L16.6758 5.67578L13.7344 2.73436C13.6969 2.69685 13.646 2.67578 13.5929 2.67578H5.67578ZM8.50049 8.93066C9.19084 8.93066 9.75049 8.37102 9.75049 7.68066C9.75049 6.99031 9.19084 6.43066 8.50049 6.43066H7.00049C6.31013 6.43066 5.75049 6.99031 5.75049 7.68066C5.75049 8.37102 6.31013 8.93066 7.00049 8.93066H8.50049ZM17.7505 15.6807C17.7505 16.371 17.1908 16.9307 16.5005 16.9307H7.00049C6.31013 16.9307 5.75049 16.371 5.75049 15.6807C5.75049 14.9903 6.31013 14.4307 7.00049 14.4307H16.5005C17.1908 14.4307 17.7505 14.9903 17.7505 15.6807ZM10.5005 12.9307C11.1908 12.9307 11.7505 12.371 11.7505 11.6807C11.7505 10.9903 11.1908 10.4307 10.5005 10.4307H7.00049C6.31013 10.4307 5.75049 10.9903 5.75049 11.6807C5.75049 12.371 6.31013 12.9307 7.00049 12.9307H10.5005Z" fill="#043B56"/>
<path d="M13.4985 2.85365C13.4985 2.72313 13.6563 2.65779 13.7486 2.75012L13.9986 3.00039L14.4986 3.50039L15.4986 4.50039L16.9986 6.00039L19.6572 8.65866C19.7832 8.78464 19.694 9.00006 19.5158 9.00009L15.499 9.00082C14.3943 9.00103 13.4986 8.10557 13.4986 7.00087L13.4985 2.85365Z" fill="#B3E4FB"/>
</svg>
