<svg width="38" height="38" viewBox="0 0 38 38" fill="none" xmlns="http://www.w3.org/2000/svg">
<path fill-rule="evenodd" clip-rule="evenodd" d="M9.73031 32.5285C10.7388 34.1132 13.0522 34.1132 14.0607 32.5285L18.368 25.7598C19.4553 24.0513 18.228 21.8155 16.2028 21.8155H13.7358L13.7358 13.6618C13.7358 12.5988 12.874 11.737 11.8109 11.737C10.7479 11.737 9.88611 12.5988 9.88611 13.6618L9.88611 21.8155L7.58819 21.8155C5.56304 21.8155 4.33574 24.0513 5.42299 25.7598L9.73031 32.5285Z" fill="#B3E4FB"/>
<path fill-rule="evenodd" clip-rule="evenodd" d="M23.8684 5.61342C24.8889 4.1396 27.0677 4.1396 28.0882 5.61343L32.5195 12.0127C33.6982 13.7148 32.48 16.0402 30.4096 16.0402H27.9992L27.9992 24.3809C27.9992 25.444 27.1374 26.3057 26.0744 26.3057C25.0113 26.3057 24.1495 25.444 24.1495 24.3809L24.1495 16.0402L21.547 16.0402C19.4766 16.0402 18.2584 13.7148 19.4371 12.0127L23.8684 5.61342Z" fill="#043B56"/>
</svg>
